<?xml version="1.0" standalone="no"?><!DOCTYPE svg PUBLIC "-//W3C//DTD SVG 1.1//EN" "http://www.w3.org/Graphics/SVG/1.1/DTD/svg11.dtd"><svg t="1776669552346" class="icon" viewBox="0 0 1024 1024" version="1.1" xmlns="http://www.w3.org/2000/svg" p-id="2140" xmlns:xlink="http://www.w3.org/1999/xlink" width="200" height="200"><path d="M233.045333 853.333333h73.386667l9.813333-55.466666h34.986667l11.093333-63.146667h-34.986666l33.28-188.586667h-81.92l-168.533334 192.853334-10.24 58.88h143.36l-10.24 55.466666z m-45.226666-118.613333l90.88-108.373333-19.2 108.373333h-71.68zM457.813333 683.946667c-32 14.506667-54.186667 40.533333-60.586666 77.226666-11.52 63.146667 33.706667 98.133333 97.28 98.133334 64 0 121.6-34.986667 132.693333-98.133334 6.4-36.693333-6.4-62.72-33.706667-77.226666 25.173333-12.373333 46.08-34.986667 51.626667-66.986667 7.68-42.666667-19.2-85.333333-92.586667-85.333333s-115.2 42.666667-122.88 85.333333c-5.546667 32.853333 6.4 54.186667 28.16 66.986667z m84.053334-92.586667c22.186667 0 34.56 13.226667 30.293333 37.12-3.84 22.613333-21.76 36.266667-43.093333 36.266667-20.906667 0-34.133333-13.653333-29.866667-36.266667 3.84-23.893333 21.333333-37.12 42.666667-37.12z m-21.76 124.16c26.026667 0 41.386667 15.36 36.693333 41.813333-3.84 24.32-23.466667 42.24-51.626667 42.24-28.16 0-41.386667-17.493333-37.12-42.24 4.693333-26.88 26.026667-41.813333 52.053334-41.813333zM728.490667 541.44l-32.426667 185.6h70.4c6.4-14.506667 20.053333-25.6 40.533333-25.6 26.453333 0 37.546667 14.933333 32.853334 43.093333-5.12 26.88-20.48 46.933333-48.213334 46.933334-23.893333 0-33.706667-14.506667-34.133333-30.72h-70.826667c-6.826667 53.76 26.453333 92.586667 96.426667 92.586666 69.12 0 115.2-42.666667 126.72-108.373333 8.96-50.346667-8.106667-101.973333-75.946667-101.973333-24.746667 0-47.36 8.96-60.586666 21.333333l10.24-58.88h133.12l11.093333-64h-199.253333zM682.666667 85.333333l298.666666 85.333334v170.666666h-341.333333v42.666667h-85.333333V128h85.333333v42.666667h192L682.666667 128V85.333333zM341.333333 213.333333v85.333334H0V213.333333h341.333333zM426.666667 298.666667V213.333333H384v85.333334h42.666667zM512 341.333333V170.666667h-42.666667v170.666666h42.666667z" p-id="2141" fill="#b87846"></path></svg>